<?xml version="1.0" encoding="UTF-8"?>
<svg version="1.1" xmlns="http://www.w3.org/2000/svg" width="75" height="65">
<path d="M0 0 C24.75 0 49.5 0 75 0 C75 21.45 75 42.9 75 65 C50.25 65 25.5 65 0 65 C0 43.55 0 22.1 0 0 Z " fill="#1A202A" transform="translate(0,0)"/>
<path d="M0 0 C2.31 0 4.62 0 7 0 C7.99 4.95 8.98 9.9 10 15 C11.27499705 10.4386325 11.27499705 10.4386325 12.54272461 5.87524414 C13.88888889 1.11111111 13.88888889 1.11111111 15 0 C17.31 0 19.62 0 22 0 C23.32 4.62 24.64 9.24 26 14 C26.99 9.38 27.98 4.76 29 0 C30.98 0 32.96 0 35 0 C34.31781795 5.36507756 33.25856493 10.55479939 32 15.8125 C31.73316406 16.9562207 31.73316406 16.9562207 31.4609375 18.12304688 C30.12991071 23.74017857 30.12991071 23.74017857 29 26 C26.69 26 24.38 26 22 26 C20.68 21.38 19.36 16.76 18 12 C16.23945126 16.64144669 14.53472968 21.27775484 13 26 C10.69 26 8.38 26 6 26 C5.18022393 23.1685963 4.36905726 20.33517098 3.5625 17.5 C3.33240234 16.70851563 3.10230469 15.91703125 2.86523438 15.1015625 C1.43950007 10.0598354 0.52029574 5.21491823 0 0 Z " fill="#CCCBCB" transform="translate(7,21)"/>
<path d="M0 0 C2.31 0 4.62 0 7 0 C7 6.93 7 13.86 7 21 C9.97 21 12.94 21 16 21 C16 22.65 16 24.3 16 26 C10.72 26 5.44 26 0 26 C0 17.42 0 8.84 0 0 Z " fill="#C5C5C5" transform="translate(45,21)"/>
<path d="M0 0 C1.67542976 0.28604898 3.34385343 0.61781233 5 1 C4.67 2.65 4.34 4.3 4 6 C2.35 5.67 0.7 5.34 -1 5 C-1 1 -1 1 0 0 Z " fill="#CFCECE" transform="translate(64,41)"/>
</svg>
